<svg id="Layer_1" data-name="Layer 1" xmlns="http://www.w3.org/2000/svg" width="500" height="500" viewBox="0 0 500 500"><defs><style>.cls-1,.cls-3,.cls-4{fill:#db4437;}.cls-2{fill:#fff;}.cls-3,.cls-4,.cls-5{stroke:#db4437;stroke-miterlimit:10;}.cls-3{stroke-width:4px;}.cls-4{stroke-width:2px;}.cls-5{fill:none;stroke-linecap:round;stroke-width:10px;}.cls-6{fill:#333;}</style></defs><title>adblockdetected</title><rect class="cls-1" width="500" height="500"/><circle class="cls-2" cx="250" cy="250" r="221.2"/><path class="cls-3" d="M133,187.83H127.2l-5.69-13.49H98.45l-5.69,13.49H86.93l19.75-46.53h6.61Zm-13.56-18.34L110,146.78l-9.49,22.7h19Z"/><path class="cls-3" d="M159.55,141.3a21,21,0,0,1,8,1.58,20.07,20.07,0,0,1,6.82,4.6q6.54,6.68,6.54,17.08t-6.54,17.08a20.06,20.06,0,0,1-6.82,4.6,21,21,0,0,1-8,1.58H139.94V141.3h19.61Zm-0.21,41.54a14.81,14.81,0,0,0,11.88-5.41,20.89,20.89,0,0,0,0-25.72,14.81,14.81,0,0,0-11.88-5.41H145.21v36.55h14.13Z"/><path class="cls-3" d="M225,153.6q0,7.66-6.26,10.47a12.11,12.11,0,0,1,7.87,7,12.44,12.44,0,0,1,.77,4.57q0,8.43-8.93,11.25a22,22,0,0,1-7,1H189.42V141.3h20.87q7.52,0,11.46,4.08A11.14,11.14,0,0,1,225,153.6Zm-30.29,8.5h15.6q6.47,0,8.65-4.43a7.36,7.36,0,0,0,.77-3.34,9.36,9.36,0,0,0-.49-3.16,6.51,6.51,0,0,0-1.55-2.42q-2.32-2.46-6.82-2.46H194.69V162.1ZM212,182.84q4.85,0,7.45-2a6.73,6.73,0,0,0,2.6-5.66,7.37,7.37,0,0,0-2.53-5.76q-2.81-2.53-8.08-2.53h-16.8v16H212Z"/><path class="cls-3" d="M241.21,141.3v41.47h25.37v5.06H235.94V141.3h5.27Z"/><path class="cls-3" d="M291,140.74q10.4,0,17.08,7a25,25,0,0,1,0,33.74q-6.68,7-17.08,7t-17.08-7a25,25,0,0,1,0-33.74Q280.63,140.74,291,140.74Zm0,42.52q8.29,0,13.42-5.41a20.39,20.39,0,0,0,0-26.57q-5.13-5.41-13.42-5.41t-13.42,5.41a20.39,20.39,0,0,0,0,26.57Q282.73,183.26,291,183.26Z"/><path class="cls-3" d="M344.81,183.26a15.1,15.1,0,0,0,14.34-9.35h5.55a20.86,20.86,0,0,1-7.66,10.4,22.45,22.45,0,0,1-13.42,4.08q-10.19,0-16.52-7-6-6.68-6-16.87t6-16.87q6.33-7,16.52-7A22.45,22.45,0,0,1,357,144.81a20.87,20.87,0,0,1,7.66,10.4h-5.55a15.1,15.1,0,0,0-14.34-9.35,20.82,20.82,0,0,0-8.29,1.44,15.73,15.73,0,0,0-5.55,4q-4.57,5.13-4.57,13.28T331,177.85Q335.75,183.26,344.81,183.26Z"/><path class="cls-3" d="M391.34,160l20.94,27.83h-6.61l-18.2-24.25-9.63,9v15.25h-5.27V141.3h5.27v24.25l25.87-24.25h7.45Z"/><path class="cls-4" d="M54.14,276.83h-7V214.67H76.86q9.48,0,15.21,5.26t5.73,14.18q0,11.64-9.67,15.87a26.88,26.88,0,0,1-5.35,1.78l16.34,25.07H90.76L75.73,253H54.14v23.85Zm0-30.52h21.5q10,0,13.71-6.2a13.07,13.07,0,0,0-2.63-15.35q-4-3.43-10.7-3.43H54.14v25Z"/><path class="cls-4" d="M117,276.83h-7V214.67h7v62.16Z"/><path class="cls-4" d="M139.21,214.67v55.4h33.9v6.76H132.17V214.67h7Z"/><path class="cls-4" d="M189.25,221.43v20.85h34.55v6.85H189.25v20.94h38.69v6.76H182.21V214.67h45.73v6.76H189.25Z"/><path class="cls-4" d="M290.38,214.67l-25.16,62.16h-8.08L232,214.67h7.7l21.5,54.18,21.5-54.18h7.7Z"/><path class="cls-4" d="M348.5,276.83h-7.79l-7.61-18H302.3l-7.61,18H286.9l26.39-62.16h8.83Zm-18.12-24.51L317.7,222,305,252.33h25.35Z"/><path class="cls-4" d="M395,221.43H373.29v55.4h-7v-55.4H344.56v-6.76H395v6.76Z"/><path class="cls-4" d="M428.87,213.92q13.9,0,22.82,9.3,8.73,9,8.73,22.54t-8.73,22.54q-8.92,9.3-22.82,9.3t-22.82-9.3q-8.73-9-8.73-22.54t8.73-22.54Q415,213.92,428.87,213.92Zm0,56.81q11.08,0,17.93-7.23,6.57-6.95,6.57-17.75T446.81,228q-6.86-7.23-17.93-7.23T410.94,228q-6.57,6.95-6.57,17.75t6.57,17.75Q417.79,270.73,428.87,270.73Z"/><line class="cls-5" x1="135.87" y1="319.7" x2="364.13" y2="319.7"/><path class="cls-6" d="M90,360a5.28,5.28,0,0,1,2,.4,5.05,5.05,0,0,1,1.72,1.16,6.44,6.44,0,0,1,0,8.6A5,5,0,0,1,92,371.36a5.28,5.28,0,0,1-2,.4H85V360H90ZM89.91,370.5a3.73,3.73,0,0,0,3-1.36,5.26,5.26,0,0,0,0-6.48,3.73,3.73,0,0,0-3-1.36H86.36v9.2h3.56Z"/><path class="cls-6" d="M98.58,359.69v1.73H97.15v-1.73h1.43Zm-1.38,3.22h1.33v8.85H97.2v-8.85Z"/><path class="cls-6" d="M106,365.29q-0.18-1.38-2.22-1.38t-2,1.27a0.89,0.89,0,0,0,.43.8,4,4,0,0,0,1.09.45q0.65,0.18,1.42.33a7.34,7.34,0,0,1,1.42.42,3,3,0,0,1,1.09.75,1.88,1.88,0,0,1,.43,1.31,2.26,2.26,0,0,1-1,2,4.52,4.52,0,0,1-2.64.68,4.21,4.21,0,0,1-2.81-.88,2.71,2.71,0,0,1-1-2h1.38a1.84,1.84,0,0,0,1.38,1.65,3.11,3.11,0,0,0,.91.14,6.26,6.26,0,0,0,.84-0.05,3.4,3.4,0,0,0,.76-0.19,1.18,1.18,0,0,0,.85-1.15,1,1,0,0,0-.43-0.84,3.82,3.82,0,0,0-1.09-.48q-0.65-.19-1.42-0.34a7.68,7.68,0,0,1-1.42-.42,3,3,0,0,1-1.09-.73,1.78,1.78,0,0,1-.43-1.27,2.21,2.21,0,0,1,.88-1.87,4.26,4.26,0,0,1,2.59-.66,3.9,3.9,0,0,1,2.57.78,2.56,2.56,0,0,1,.9,1.73H106Z"/><path class="cls-6" d="M116.26,370.34a3.58,3.58,0,0,1-3.17,1.56,4,4,0,0,1-3.11-1.33,5.07,5.07,0,0,1,0-6.47,4.11,4.11,0,0,1,3.2-1.33,3.51,3.51,0,0,1,3.08,1.57v-1.43h1.33v8.85h-1.33v-1.42Zm-3,.35a2.8,2.8,0,0,0,2.26-1,3.93,3.93,0,0,0,0-4.74,2.8,2.8,0,0,0-2.26-1,2.94,2.94,0,0,0-2.3,1,3.8,3.8,0,0,0,0,4.74A2.94,2.94,0,0,0,113.27,370.7Z"/><path class="cls-6" d="M120.84,371.76v-7.68H119v-1.17h1.8v-3.17h1.33v3.17h2v1.17h-2v7.68h-1.33Z"/><path class="cls-6" d="M126.6,371.76v-7.68h-1.8v-1.17h1.8v-3.17h1.33v3.17h2v1.17h-2v7.68H126.6Z"/><path class="cls-6" d="M132.8,359.69v1.73h-1.43v-1.73h1.43Zm-1.38,3.22h1.33v8.85h-1.33v-8.85Z"/><path class="cls-6" d="M142.46,362.91L139,371.76h-1.56L134,362.91h1.45l2.8,7.43,2.78-7.43h1.45Z"/><path class="cls-6" d="M150.49,370.34a3.58,3.58,0,0,1-3.17,1.56,4,4,0,0,1-3.11-1.33,5.07,5.07,0,0,1,0-6.47,4.11,4.11,0,0,1,3.2-1.33,3.51,3.51,0,0,1,3.08,1.57v-1.43h1.33v8.85h-1.33v-1.42Zm-3,.35a2.8,2.8,0,0,0,2.26-1,3.93,3.93,0,0,0,0-4.74,2.8,2.8,0,0,0-2.26-1,2.94,2.94,0,0,0-2.3,1,3.8,3.8,0,0,0,0,4.74A2.94,2.94,0,0,0,147.5,370.7Z"/><path class="cls-6" d="M155.44,371.76h-1.33V359.38h1.33v12.38Z"/><path class="cls-6" d="M161.58,362.77a4.2,4.2,0,0,1,3.22,1.33,5.07,5.07,0,0,1,0,6.47,4.57,4.57,0,0,1-6.44,0,5.07,5.07,0,0,1,0-6.47A4.2,4.2,0,0,1,161.58,362.77Zm0,7.93a2.8,2.8,0,0,0,2.26-1,3.93,3.93,0,0,0,0-4.74,3.08,3.08,0,0,0-4.53,0,3.93,3.93,0,0,0,0,4.74A2.8,2.8,0,0,0,161.58,370.7Z"/><path class="cls-6" d="M176.69,365.29q-0.18-1.38-2.22-1.38t-2,1.27a0.89,0.89,0,0,0,.43.8,4,4,0,0,0,1.09.45q0.65,0.18,1.42.33a7.34,7.34,0,0,1,1.42.42,3,3,0,0,1,1.09.75,1.88,1.88,0,0,1,.43,1.31,2.26,2.26,0,0,1-1,2,4.52,4.52,0,0,1-2.64.68,4.21,4.21,0,0,1-2.81-.88,2.71,2.71,0,0,1-1-2h1.38a1.84,1.84,0,0,0,1.38,1.65,3.11,3.11,0,0,0,.91.14,6.26,6.26,0,0,0,.84-0.05,3.4,3.4,0,0,0,.76-0.19,1.18,1.18,0,0,0,.85-1.15,1,1,0,0,0-.43-0.84,3.82,3.82,0,0,0-1.09-.48q-0.65-.19-1.42-0.34a7.68,7.68,0,0,1-1.42-.42,3,3,0,0,1-1.09-.73,1.78,1.78,0,0,1-.43-1.27,2.21,2.21,0,0,1,.88-1.87,4.26,4.26,0,0,1,2.59-.66,3.9,3.9,0,0,1,2.57.78,2.56,2.56,0,0,1,.9,1.73h-1.34Z"/><path class="cls-6" d="M186.4,371.76v-1.38a4.44,4.44,0,0,1-1.17,1.08,2.86,2.86,0,0,1-1.57.44,4.2,4.2,0,0,1-1.52-.25,3.07,3.07,0,0,1-1.11-.74,3.81,3.81,0,0,1-1.1-2.85v-5.15h1.33V368a2.71,2.71,0,0,0,.69,1.95,2.35,2.35,0,0,0,1.79.73,2.64,2.64,0,0,0,1.89-.74,2.6,2.6,0,0,0,.78-1.95v-5.09h1.33v8.85H186.4Z"/><path class="cls-6" d="M200.7,370.33a3.59,3.59,0,0,1-3.17,1.57,4,4,0,0,1-3.11-1.33,5.07,5.07,0,0,1,0-6.47,4.12,4.12,0,0,1,3.21-1.33,3.49,3.49,0,0,1,3.07,1.56v-1.42H202v12.35H200.7v-4.94Zm-3-6.35a2.94,2.94,0,0,0-2.3,1,3.8,3.8,0,0,0,0,4.74,2.94,2.94,0,0,0,2.3,1,2.8,2.8,0,0,0,2.26-1,3.93,3.93,0,0,0,0-4.74A2.8,2.8,0,0,0,197.71,364Z"/><path class="cls-6" d="M210.71,371.76v-1.38a4.44,4.44,0,0,1-1.17,1.08,2.86,2.86,0,0,1-1.57.44,4.2,4.2,0,0,1-1.52-.25,3.07,3.07,0,0,1-1.11-.74,3.81,3.81,0,0,1-1.1-2.85v-5.15h1.33V368a2.71,2.71,0,0,0,.69,1.95,2.35,2.35,0,0,0,1.79.73,2.64,2.64,0,0,0,1.89-.74,2.6,2.6,0,0,0,.78-1.95v-5.09H212v8.85h-1.33Z"/><path class="cls-6" d="M218.28,370.7a2.68,2.68,0,0,0,2.56-1.49h1.45a4.26,4.26,0,0,1-1.46,1.95,4.2,4.2,0,0,1-2.57.74,4.28,4.28,0,0,1-3.26-1.33,4.53,4.53,0,0,1-1.22-3.24A4.6,4.6,0,0,1,215,364.1a4.57,4.57,0,0,1,6.44,0,4.6,4.6,0,0,1,1.17,3.24v0.53h-7.41a3.21,3.21,0,0,0,1,2A3,3,0,0,0,218.28,370.7ZM218.17,364a2.93,2.93,0,0,0-2.05.76,3.14,3.14,0,0,0-1,1.89h6a3.14,3.14,0,0,0-1-1.89A2.93,2.93,0,0,0,218.17,364Z"/><path class="cls-6" d="M229.39,365.29q-0.18-1.38-2.22-1.38t-2,1.27a0.89,0.89,0,0,0,.43.8,4,4,0,0,0,1.09.45q0.65,0.18,1.42.33a7.34,7.34,0,0,1,1.42.42,3,3,0,0,1,1.09.75,1.88,1.88,0,0,1,.43,1.31,2.26,2.26,0,0,1-1,2,4.52,4.52,0,0,1-2.64.68,4.21,4.21,0,0,1-2.81-.88,2.71,2.71,0,0,1-1-2h1.38a1.84,1.84,0,0,0,1.38,1.65,3.11,3.11,0,0,0,.91.14,6.26,6.26,0,0,0,.84-0.05,3.4,3.4,0,0,0,.76-0.19,1.18,1.18,0,0,0,.85-1.15,1,1,0,0,0-.43-0.84,3.82,3.82,0,0,0-1.09-.48q-0.65-.19-1.42-0.34a7.68,7.68,0,0,1-1.42-.42,3,3,0,0,1-1.09-.73,1.78,1.78,0,0,1-.43-1.27,2.21,2.21,0,0,1,.88-1.87,4.26,4.26,0,0,1,2.59-.66,3.9,3.9,0,0,1,2.57.78,2.56,2.56,0,0,1,.9,1.73h-1.34Z"/><path class="cls-6" d="M233.67,371.76v-7.68h-1.8v-1.17h1.8v-3.17H235v3.17h2v1.17h-2v7.68h-1.33Z"/><path class="cls-6" d="M242.15,362.77a4.2,4.2,0,0,1,3.22,1.33,5.07,5.07,0,0,1,0,6.47,4.57,4.57,0,0,1-6.44,0,5.07,5.07,0,0,1,0-6.47A4.2,4.2,0,0,1,242.15,362.77Zm0,7.93a2.8,2.8,0,0,0,2.26-1,3.93,3.93,0,0,0,0-4.74,3.08,3.08,0,0,0-4.53,0,3.93,3.93,0,0,0,0,4.74A2.8,2.8,0,0,0,242.15,370.7Z"/><path class="cls-6" d="M257.25,365.29q-0.18-1.38-2.22-1.38t-2,1.27a0.89,0.89,0,0,0,.43.8,3.94,3.94,0,0,0,1.09.45q0.65,0.18,1.42.33a7.3,7.3,0,0,1,1.42.42,3,3,0,0,1,1.09.75,1.88,1.88,0,0,1,.43,1.31,2.26,2.26,0,0,1-1,2,4.52,4.52,0,0,1-2.64.68,4.21,4.21,0,0,1-2.81-.88,2.71,2.71,0,0,1-1-2h1.38a1.84,1.84,0,0,0,1.38,1.65,3.1,3.1,0,0,0,.91.14,6.27,6.27,0,0,0,.84-0.05,3.41,3.41,0,0,0,.76-0.19,1.18,1.18,0,0,0,.85-1.15,1,1,0,0,0-.43-0.84,3.82,3.82,0,0,0-1.09-.48q-0.66-.19-1.42-0.34a7.69,7.69,0,0,1-1.42-.42,3,3,0,0,1-1.09-.73,1.78,1.78,0,0,1-.43-1.27,2.21,2.21,0,0,1,.88-1.87,4.26,4.26,0,0,1,2.59-.66,3.9,3.9,0,0,1,2.56.78,2.55,2.55,0,0,1,.9,1.73h-1.34Z"/><path class="cls-6" d="M262,359.69v1.73h-1.43v-1.73H262Zm-1.38,3.22h1.33v8.85h-1.33v-8.85Z"/><path class="cls-6" d="M265.16,371.76v-7.68h-1.8v-1.17h1.8v-3.17h1.33v3.17h2v1.17h-2v7.68h-1.33Z"/><path class="cls-6" d="M273.63,362.77a4.2,4.2,0,0,1,3.22,1.33,5.07,5.07,0,0,1,0,6.47,4.57,4.57,0,0,1-6.44,0,5.07,5.07,0,0,1,0-6.47A4.2,4.2,0,0,1,273.63,362.77Zm0,7.93a2.8,2.8,0,0,0,2.27-1,3.93,3.93,0,0,0,0-4.74,3.08,3.08,0,0,0-4.53,0,3.93,3.93,0,0,0,0,4.74A2.8,2.8,0,0,0,273.63,370.7Z"/><path class="cls-6" d="M279.84,370.34h1.73L280,374.11h-1.2Z"/><path class="cls-6" d="M292.63,365.29q-0.18-1.38-2.22-1.38t-2,1.27a0.89,0.89,0,0,0,.43.8,4,4,0,0,0,1.09.45q0.66,0.18,1.42.33a7.38,7.38,0,0,1,1.42.42,3,3,0,0,1,1.09.75,1.88,1.88,0,0,1,.43,1.31,2.26,2.26,0,0,1-1,2,4.52,4.52,0,0,1-2.64.68,4.21,4.21,0,0,1-2.81-.88,2.71,2.71,0,0,1-1-2h1.38a1.84,1.84,0,0,0,1.38,1.65,3.11,3.11,0,0,0,.91.14,6.26,6.26,0,0,0,.84-0.05,3.39,3.39,0,0,0,.76-0.19,1.18,1.18,0,0,0,.85-1.15,1,1,0,0,0-.43-0.84,3.82,3.82,0,0,0-1.09-.48q-0.65-.19-1.42-0.34a7.68,7.68,0,0,1-1.42-.42,3,3,0,0,1-1.09-.73,1.78,1.78,0,0,1-.43-1.27,2.21,2.21,0,0,1,.88-1.87,4.26,4.26,0,0,1,2.59-.66,3.9,3.9,0,0,1,2.57.78,2.56,2.56,0,0,1,.9,1.73h-1.35Z"/><path class="cls-6" d="M299.91,370.7a2.68,2.68,0,0,0,2.57-1.49h1.45a4.27,4.27,0,0,1-1.46,1.95,4.2,4.2,0,0,1-2.57.74,4.28,4.28,0,0,1-3.25-1.33,4.53,4.53,0,0,1-1.22-3.24,4.61,4.61,0,0,1,1.17-3.24,4.57,4.57,0,0,1,6.44,0,4.6,4.6,0,0,1,1.17,3.24v0.53h-7.41a3.21,3.21,0,0,0,1,2A3,3,0,0,0,299.91,370.7ZM299.8,364a2.93,2.93,0,0,0-2.05.76,3.13,3.13,0,0,0-1,1.89h6a3.15,3.15,0,0,0-1-1.89A2.93,2.93,0,0,0,299.8,364Z"/><path class="cls-6" d="M314.79,365.29q-0.18-1.38-2.22-1.38t-2,1.27a0.89,0.89,0,0,0,.43.8,3.94,3.94,0,0,0,1.09.45c0.44,0.12.91,0.23,1.42,0.33a7.35,7.35,0,0,1,1.42.42,3,3,0,0,1,1.09.75,1.88,1.88,0,0,1,.43,1.31,2.26,2.26,0,0,1-1,2,4.51,4.51,0,0,1-2.64.68A4.21,4.21,0,0,1,310,371a2.71,2.71,0,0,1-1-2h1.38a1.84,1.84,0,0,0,1.38,1.65,3.1,3.1,0,0,0,.91.14,6.26,6.26,0,0,0,.84-0.05,3.4,3.4,0,0,0,.76-0.19,1.18,1.18,0,0,0,.85-1.15,1,1,0,0,0-.43-0.84,3.82,3.82,0,0,0-1.09-.48q-0.65-.19-1.42-0.34a7.7,7.7,0,0,1-1.42-.42,3,3,0,0,1-1.09-.73,1.78,1.78,0,0,1-.43-1.27,2.21,2.21,0,0,1,.88-1.87,4.26,4.26,0,0,1,2.59-.66,3.9,3.9,0,0,1,2.57.78,2.56,2.56,0,0,1,.9,1.73h-1.34Z"/><path class="cls-6" d="M322.06,370.7a2.68,2.68,0,0,0,2.57-1.49h1.45a4.27,4.27,0,0,1-1.46,1.95,4.2,4.2,0,0,1-2.57.74,4.28,4.28,0,0,1-3.25-1.33,4.53,4.53,0,0,1-1.22-3.24,4.6,4.6,0,0,1,1.17-3.24,4.57,4.57,0,0,1,6.44,0,4.6,4.6,0,0,1,1.17,3.24v0.53h-7.41a3.21,3.21,0,0,0,1,2A3,3,0,0,0,322.06,370.7ZM322,364a2.93,2.93,0,0,0-2.05.76,3.14,3.14,0,0,0-1,1.89h6a3.14,3.14,0,0,0-1-1.89A2.93,2.93,0,0,0,322,364Z"/><path class="cls-6" d="M329.34,359.69v1.73h-1.43v-1.73h1.43ZM328,362.91h1.33v8.85H328v-8.85Z"/><path class="cls-6" d="M341.75,371.76v-1.38a4.43,4.43,0,0,1-1.17,1.08,2.86,2.86,0,0,1-1.58.44,4.2,4.2,0,0,1-1.52-.25,3.08,3.08,0,0,1-1.11-.74,3.81,3.81,0,0,1-1.1-2.85v-5.15h1.33V368a2.71,2.71,0,0,0,.69,1.95,2.35,2.35,0,0,0,1.79.73A2.64,2.64,0,0,0,341,370a2.6,2.6,0,0,0,.78-1.95v-5.09h1.33v8.85h-1.33Z"/><path class="cls-6" d="M346.7,362.91v1.38a4.44,4.44,0,0,1,1.17-1.08,2.85,2.85,0,0,1,1.57-.44A4.2,4.2,0,0,1,351,363a3.09,3.09,0,0,1,1.12.74,3.82,3.82,0,0,1,1.1,2.85v5.15h-1.33v-5.11a2.71,2.71,0,0,0-.69-1.95,2.36,2.36,0,0,0-1.79-.73,2.64,2.64,0,0,0-1.89.74,2.61,2.61,0,0,0-.78,1.95v5.09h-1.33v-8.85h1.33Z"/><path class="cls-6" d="M364.36,365.29q-0.18-1.38-2.22-1.38t-2,1.27a0.89,0.89,0,0,0,.43.8,3.94,3.94,0,0,0,1.09.45c0.44,0.12.91,0.23,1.42,0.33a7.35,7.35,0,0,1,1.42.42,3,3,0,0,1,1.09.75,1.88,1.88,0,0,1,.43,1.31,2.26,2.26,0,0,1-1,2,4.51,4.51,0,0,1-2.64.68,4.21,4.21,0,0,1-2.81-.88,2.71,2.71,0,0,1-1-2h1.38a1.84,1.84,0,0,0,1.38,1.65,3.1,3.1,0,0,0,.91.14,6.26,6.26,0,0,0,.84-0.05,3.4,3.4,0,0,0,.76-0.19,1.18,1.18,0,0,0,.85-1.15,1,1,0,0,0-.43-0.84,3.82,3.82,0,0,0-1.09-.48q-0.65-.19-1.42-0.34a7.7,7.7,0,0,1-1.42-.42,3,3,0,0,1-1.09-.73,1.78,1.78,0,0,1-.43-1.27,2.21,2.21,0,0,1,.88-1.87,4.26,4.26,0,0,1,2.59-.66,3.9,3.9,0,0,1,2.57.78,2.56,2.56,0,0,1,.9,1.73h-1.34Z"/><path class="cls-6" d="M369.06,359.69v1.73h-1.43v-1.73h1.43Zm-1.38,3.22H369v8.85h-1.33v-8.85Z"/><path class="cls-6" d="M378.21,364.33v-1.42h1.33v8.58a3.75,3.75,0,0,1-1.09,2.91,4.16,4.16,0,0,1-2.93,1,5,5,0,0,1-2.87-.71,3.51,3.51,0,0,1-1.41-1.87h1.47a2.47,2.47,0,0,0,2.58,1.38,3,3,0,0,0,2.23-.71,2.87,2.87,0,0,0,.69-2.09v-1.22a3.59,3.59,0,0,1-3.17,1.57,4,4,0,0,1-3.11-1.31,4.92,4.92,0,0,1,0-6.37,4.15,4.15,0,0,1,3.21-1.31A3.49,3.49,0,0,1,378.21,364.33Zm-3,6.23a3.09,3.09,0,0,0,1.29-.26,3,3,0,0,0,1-.7,3.82,3.82,0,0,0,0-4.67,2.92,2.92,0,0,0-2.26-1,3,3,0,0,0-2.3,1,3.7,3.7,0,0,0,0,4.67A3,3,0,0,0,375.22,370.56Z"/><path class="cls-6" d="M383.16,362.91v1.38a4.44,4.44,0,0,1,1.17-1.08,2.85,2.85,0,0,1,1.57-.44,4.2,4.2,0,0,1,1.52.25,3.09,3.09,0,0,1,1.12.74,3.82,3.82,0,0,1,1.1,2.85v5.15h-1.33v-5.11a2.71,2.71,0,0,0-.69-1.95,2.36,2.36,0,0,0-1.79-.73,2.64,2.64,0,0,0-1.89.74,2.61,2.61,0,0,0-.78,1.95v5.09h-1.33v-8.85h1.33Z"/><path class="cls-6" d="M395.69,362.77a4.2,4.2,0,0,1,3.22,1.33,5.07,5.07,0,0,1,0,6.47,4.57,4.57,0,0,1-6.44,0,5.07,5.07,0,0,1,0-6.47A4.2,4.2,0,0,1,395.69,362.77Zm0,7.93a2.8,2.8,0,0,0,2.26-1,3.93,3.93,0,0,0,0-4.74,3.08,3.08,0,0,0-4.53,0,3.93,3.93,0,0,0,0,4.74A2.8,2.8,0,0,0,395.69,370.7Z"/><path class="cls-6" d="M406.5,362.77v1.33h-0.16a2.83,2.83,0,0,0-2.33,1.15,4.15,4.15,0,0,0-.85,2.62v3.89h-1.33v-8.85h1.33v2.18a3.35,3.35,0,0,1,3.26-2.32h0.09Z"/><path class="cls-6" d="M411.64,370.7a2.68,2.68,0,0,0,2.57-1.49h1.45a4.27,4.27,0,0,1-1.46,1.95,4.2,4.2,0,0,1-2.57.74,4.28,4.28,0,0,1-3.25-1.33,4.53,4.53,0,0,1-1.22-3.24,4.6,4.6,0,0,1,1.17-3.24,4.57,4.57,0,0,1,6.44,0,4.6,4.6,0,0,1,1.17,3.24v0.53h-7.41a3.21,3.21,0,0,0,1,2A3,3,0,0,0,411.64,370.7ZM411.54,364a2.93,2.93,0,0,0-2.05.76,3.14,3.14,0,0,0-1,1.89h6a3.14,3.14,0,0,0-1-1.89A2.93,2.93,0,0,0,411.54,364Z"/></svg>