<?xml version="1.0" encoding="utf-8"?>
<!-- Generator: Adobe Illustrator 19.1.0, SVG Export Plug-In . SVG Version: 6.00 Build 0)  -->
<svg version="1.1" id="Layer_1" xmlns="http://www.w3.org/2000/svg" xmlns:xlink="http://www.w3.org/1999/xlink" x="0px" y="0px"
	 viewBox="-217 -144.3 176 144.3" style="enable-background:new -217 -144.3 176 144.3;" xml:space="preserve">
<style type="text/css">
	.st0{display:none;fill:#EE3A41;stroke:#EE3A41;stroke-width:5;stroke-miterlimit:10;}
	.st1{display:none;}
	.st2{display:inline;fill:none;}
	.st3{display:inline;fill:#EE3A41;}
	.st4{fill:#EE3B41;}
	.st5{fill:none;stroke:#EE3B41;stroke-width:5;stroke-miterlimit:10;}
	.st6{fill:#FFFFFF;}
	.st7{fill:#DB4437;}
	.st8{fill:#E06055;}
</style>
<rect x="-444.2" y="153.2" class="st0" width="200" height="200"/>
<g class="st1">
	<path class="st2" d="M-604.1,233.6c-0.3,1.5-0.4,3-0.4,4.6s0.2,3.1,0.4,4.6c5.2-2.1,10.7-3.5,16.5-4.2c0-0.1,0-0.2,0-0.4
		c0-4.8,3.9-8.7,8.7-8.7c4.8,0,8.7,3.9,8.7,8.7c0,0.1,0,0.2,0,0.4c5.8,0.7,11.3,2.2,16.5,4.2c0.3-1.5,0.4-3,0.4-4.6
		s-0.2-3.1-0.4-4.6l-6.9-0.9l-1-3.2l4-5.4c-1.8-2.7-4.1-5.1-6.8-6.9l-5.5,4.3l-3-1.6l-1-6.7c-1.6-0.3-3.2-0.5-4.9-0.5
		c-1.6,0-3.2,0.2-4.8,0.4l-0.9,7.2l-3.2,1l-5.6-4.1c-2.6,1.8-4.9,4.1-6.7,6.7l4.4,5.7l-1.6,3L-604.1,233.6z"/>
	<path class="st3" d="M-578.9,246.9c-4.7,0-8.5-3.7-8.7-8.3c-5.7,0.7-11.3,2.2-16.5,4.2c0,0.1,0,0.2,0,0.3c0.1,0,0.1,0,0.2,0l7,0.9
		l1,3.2l-4.1,5.6c1.8,2.6,4.1,4.9,6.7,6.6l5.5-4.2l3,1.6l1,6.5c1.6,0.3,3.2,0.5,4.8,0.5c1.7,0,3.3-0.2,4.9-0.5l0.9-6.8l3.2-1
		l5.3,3.9c2.7-1.8,5.1-4.2,6.9-6.9l-4.1-5.3l1.6-3l6.3-1c0-0.1,0-0.2,0.1-0.4c-5.2-2.1-10.8-3.5-16.5-4.2
		C-570.4,243.2-574.2,246.9-578.9,246.9z"/>
</g>
<g>
	<g>
		
			<image style="overflow:visible;opacity:0.75;enable-background:new    ;" width="86" height="84" xlink:href="86A0E805.png"  transform="matrix(1 0 0 1 -113.6875 -140.3667)">
		</image>
		<g>
			<polygon class="st4" points="-77.5,-107.4 -55.7,-93.6 -61.6,-91.1 -79.3,-102.7 -83,-94.3 -78.9,-84.1 -83.7,-82.2 
				-101.9,-127.2 -97.1,-129.1 -85.4,-100.3 -76.4,-122.6 -69.6,-125.3 			"/>
			<polygon class="st5" points="-77.5,-107.4 -55.7,-93.6 -61.6,-91.1 -79.3,-102.7 -83,-94.3 -78.9,-84.1 -83.7,-82.2 
				-101.9,-127.2 -97.1,-129.1 -85.4,-100.3 -76.4,-122.6 -69.6,-125.3 			"/>
		</g>
	</g>
	<g>
		
			<image style="overflow:visible;opacity:0.75;enable-background:new    ;" width="88" height="85" xlink:href="86A0E80B.png"  transform="matrix(1 0 0 1 -223.6875 -99.3667)">
		</image>
		<g>
			<polygon class="st4" points="-184.7,-71.4 -182.3,-42.5 -187.8,-40.3 -211,-68.4 -205.9,-70.6 -187.5,-47.5 -190,-77 
				-184.7,-79.1 -166,-56.2 -168.8,-85.4 -163.6,-87.5 -160.8,-51.3 -166.3,-49 			"/>
			<polygon class="st5" points="-184.7,-71.4 -182.3,-42.5 -187.8,-40.3 -211,-68.4 -205.9,-70.6 -187.5,-47.5 -190,-77 
				-184.7,-79.1 -166,-56.2 -168.8,-85.4 -163.6,-87.5 -160.8,-51.3 -166.3,-49 			"/>
		</g>
	</g>
	<g>
		<g>
			<g>
				<circle class="st6" cx="-129.5" cy="-72.5" r="66.2"/>
				<path class="st6" d="M-129.5-4.9c-37.3,0-67.6-30.3-67.6-67.6s30.3-67.6,67.6-67.6s67.6,30.3,67.6,67.6
					C-61.9-35.3-92.2-4.9-129.5-4.9z M-129.5-137.3c-35.7,0-64.8,29-64.8,64.8s29,64.8,64.8,64.8s64.8-29,64.8-64.8
					S-93.8-137.3-129.5-137.3z"/>
			</g>
			<g>
				<g>
					<g>
						<path class="st7" d="M-184.7-71.4l2.3,28.9l-5.5,2.2L-211-68.4l5.1-2.1l18.3,23L-190-77l5.3-2.1l18.7,22.9l-2.8-29.2l5.1-2.1
							l2.9,36.2l-5.5,2.3L-184.7-71.4z"/>
						<path class="st7" d="M-188.6-37.4l-26.3-32l9.8-4.1l14.5,18.2l-1.9-23.4l8.6-3.4l14.8,18.1l-2.2-23.1l9.8-4.1l3.3,41.3
							l-8.8,3.7l-14.7-17.9l1.8,23L-188.6-37.4z M-207-67.4l17.4,21.2l-17-21.3L-207-67.4z M-166.2-83.8l2.5,26.1l-2.1-26.2
							L-166.2-83.8z M-185.5-76.2l14.7,17.9L-185.5-76.2L-185.5-76.2z M-187.4-75.4l0.8,9.6L-187.4-75.4L-187.4-75.4z"/>
					</g>
					<g>
						<path class="st7" d="M-144.1-96c4.8-1.9,9.3-1.9,13.7,0.1c4,1.9,7,5.3,9,10c1.9,4.7,2.1,9.3,0.5,13.5
							c-1.7,4.4-4.9,7.6-9.7,9.5c-4.8,1.9-9.3,1.9-13.7-0.1c-4-1.9-7-5.3-9-10s-2.1-9.3-0.5-13.5C-152.2-90.9-148.9-94-144.1-96z
							 M-132.4-67.2c3.5-1.4,5.8-3.7,6.7-6.9c1.1-3.1,0.9-6.4-0.6-9.8s-3.6-6-6.4-7.4c-3-1.5-6.2-1.6-9.7-0.3
							c-3.6,1.3-5.8,3.7-6.7,6.9c-1.1,3.1-0.9,6.4,0.6,9.8c1.4,3.5,3.6,6,6.4,7.4C-139.2-65.8-135.9-65.7-132.4-67.2z"/>
						<path class="st7" d="M-137.6-59c-2.7,0-5.3-0.6-7.8-1.8c-4.6-2.2-8-6-10.2-11.3s-2.3-10.5-0.5-15.3c1.9-5,5.6-8.7,11.1-10.9
							c5.5-2.2,10.7-2.1,15.6,0.2c4.6,2.2,8,6,10.2,11.3s2.3,10.5,0.5,15.3c-2,5.1-5.7,8.8-11.1,10.9C-132.5-59.5-135.1-59-137.6-59
							z M-149.7-89.1c-0.8,1-1.4,2.2-1.9,3.5c-1.4,3.6-1.2,7.6,0.5,11.7c1.7,4.2,4.3,7.1,7.8,8.8c1.4,0.7,2.9,1.1,4.4,1.2
							c-1.5-0.2-3-0.7-4.4-1.5c-3.2-1.7-5.7-4.6-7.4-8.6s-1.9-7.9-0.7-11.5C-151-86.8-150.4-88-149.7-89.1z M-137.6-90.2
							c-1.2,0-2.5,0.3-3.9,0.8c-2.8,1.1-4.5,2.8-5.3,5.4v0.1c-0.9,2.5-0.7,5.2,0.5,8.1c1.2,3,3,5,5.2,6.2c2.4,1.3,4.9,1.4,7.7,0.2
							c2.9-1.2,4.6-2.9,5.4-5.4v-0.1c0.9-2.5,0.7-5.2-0.5-8.1c-1.2-3-3-5-5.2-6.2C-135-89.8-136.3-90.2-137.6-90.2z M-123.4-73.4
							c-0.4,1.3-0.9,2.4-1.7,3.5c0.7-1,1.4-2.1,1.8-3.4c1.4-3.6,1.2-7.5-0.5-11.7s-4.3-7.1-7.8-8.8c-2-1-4.1-1.4-6.3-1.3
							c2.2,0,4.3,0.5,6.3,1.5c3.3,1.7,5.8,4.6,7.5,8.6C-122.4-80.9-122.2-77-123.4-73.4z"/>
					</g>
					<g>
						<path class="st7" d="M-103.5-112.3l1.9,4.8l-0.6,0.2c-3.5,1.4-5.8,4-6.8,7.6c-1,3.5-0.8,7,0.8,10.8l5.7,14.2l-4.8,1.9
							l-13-32.2l4.8-1.9l3.2,7.9c-0.3-3.8,1-7.1,3.7-10.1c1.2-1.3,2.7-2.3,4.7-3.1L-103.5-112.3z"/>
						<path class="st7" d="M-108.7-69.7l-14.8-36.6l9.3-3.7l1.2,2.9c0.7-1.2,1.5-2.4,2.6-3.6c1.5-1.6,3.4-2.9,5.7-3.7l0.4-0.1
							l2.4-0.5l3.6,9.1l-2.9,1c-2.8,1.2-4.5,3.2-5.4,6c-0.8,3-0.6,6,0.7,9.2l6.6,16.4L-108.7-69.7z M-117.2-103.7L-106-76l0.4-0.1
							l-3.1-7.7v0.2l-8.1-20.2L-117.2-103.7z M-104.9-109.2c-0.8,0.5-1.5,1-2.1,1.7c-0.3,0.4-0.6,0.7-0.9,1.1c0.9-0.9,2-1.7,3.2-2.4
							L-104.9-109.2z"/>
					</g>
					<g>
						<path class="st7" d="M-77.5-107.4l21.8,13.9l-5.9,2.4l-17.7-11.6l-3.7,8.4l4.1,10.2l-4.8,1.9l-18.2-45l4.8-1.9l11.7,28.8
							l9.1-22.3l6.7-2.7L-77.5-107.4z"/>
						<path class="st7" d="M-85-79.1l-20-49.5l9.3-3.7l10.3,25.5l7.2-17.7l13.2-5.3l-9.5,21.3l23.9,15.3l-11.3,4.7l-16.4-10.7
							l-2.1,4.8l4.7,11.5L-85-79.1z M-98.7-125.8l16.4,40.5l0.3-0.1l-3.6-8.9l0,0l-12.8-31.6L-98.7-125.8z M-80.4-106.3l19,12.4
							l0.4-0.2l-19.3-12.3L-80.4-106.3z M-74.5-120.7l-2.8,6.8l3.1-6.9L-74.5-120.7z"/>
					</g>
				</g>
			</g>
			<g>
				<g>
					<g>
						<g>
							<path class="st8" d="M-151.6-30.7c-0.5,2.1-1.8,3.7-4.1,4.6c-2.1,0.9-4,0.8-6-0.1c-1.8-1-3.2-2.4-4-4.5
								c-0.9-2.1-0.9-4.1-0.2-6.1c0.8-1.9,2.2-3.4,4.3-4.2c2.2-0.9,4.2-0.7,6.1,0.6l-1-2.3l2.2-0.9l5.8,14.5l-2.2,0.9L-151.6-30.7z
								 M-156.2-28.2c1.5-0.6,2.6-1.6,3.1-3.1c0.5-1.3,0.4-2.8-0.3-4.4s-1.5-2.7-2.9-3.4c-1.3-0.7-2.8-0.8-4.3-0.1
								c-1.5,0.6-2.6,1.6-3.1,3.1c-0.5,1.3-0.5,2.9,0.2,4.4c0.6,1.5,1.6,2.7,2.9,3.4C-159.2-27.6-157.8-27.6-156.2-28.2z"/>
						</g>
						<g>
							<path class="st8" d="M-142.9-48.6l0.9,2.2l-0.3,0.1c-1.5,0.6-2.6,1.7-3.1,3.4c-0.5,1.5-0.4,3.2,0.3,4.8l2.5,6.4l-2.2,0.9
								l-5.8-14.5l2.2-0.9l1.4,3.6c-0.1-1.7,0.4-3.2,1.6-4.5c0.5-0.6,1.3-1.1,2.1-1.3L-142.9-48.6z"/>
						</g>
						<g>
							<path class="st8" d="M-134.7-51.8c2.1-0.9,4.2-0.9,6.2,0.1c1.8,0.9,3.2,2.4,4,4.5s1,4.1,0.2,6.1s-2.2,3.4-4.4,4.2
								c-2.1,0.9-4.2,0.9-6.2-0.1c-1.8-0.9-3.2-2.4-4-4.5c-0.9-2.1-1-4.1-0.2-6.1C-138.3-49.5-136.9-51-134.7-51.8z M-129.5-38.9
								c1.5-0.6,2.6-1.6,3.1-3.1c0.5-1.3,0.4-2.8-0.3-4.4c-0.7-1.6-1.5-2.7-2.9-3.4c-1.3-0.7-2.8-0.8-4.3-0.1
								c-1.5,0.6-2.6,1.6-3.1,3.1c-0.5,1.3-0.4,2.8,0.3,4.4c0.6,1.5,1.5,2.7,2.9,3.4C-132.5-38.3-131.1-38.2-129.5-38.9z"/>
						</g>
						<g>
							<path class="st8" d="M-108.3-45.4l-0.9-2.2c-0.3,0.9-0.7,1.7-1.3,2.5c-0.6,0.8-1.3,1.3-2.3,1.7c-1,0.4-1.8,0.6-2.6,0.6
								s-1.5-0.2-2.3-0.5c-1.6-0.7-2.9-2-3.7-4l-3.4-8.4l2.2-0.9l3.4,8.4c0.6,1.3,1.3,2.2,2.4,2.7s2.2,0.5,3.4,0
								c1.3-0.5,2.1-1.3,2.6-2.4c0.5-1.2,0.5-2.4,0-3.7l-3.4-8.3l2.2-0.9l5.8,14.5L-108.3-45.4z"/>
						</g>
						<g>
							<path class="st8" d="M-106-63l0.9,2.2c0.3-0.9,0.7-1.7,1.3-2.5c0.6-0.8,1.3-1.3,2.3-1.7s1.8-0.6,2.7-0.6s1.5,0.2,2.3,0.5
								c1.6,0.7,2.9,2,3.7,4l3.4,8.4l-2.2,0.9l-3.4-8.4c-0.6-1.3-1.3-2.2-2.4-2.7s-2.2-0.5-3.4,0c-1.3,0.5-2.1,1.3-2.6,2.4
								c-0.5,1.2-0.5,2.4,0,3.7l3.4,8.3l-2.2,0.9l-5.8-14.5L-106-63z"/>
						</g>
						<g>
							<path class="st8" d="M-75.7-61.1c-0.5,2.1-1.8,3.7-4.1,4.6c-2.1,0.9-4,0.8-6-0.1c-1.8-1-3.2-2.4-4-4.5s-0.9-4.1-0.2-6.1
								c0.8-1.9,2.2-3.4,4.3-4.2c2.2-0.9,4.2-0.7,6.1,0.6l-3.3-8.1l2.2-0.9l8.1,20.2l-2.2,0.9L-75.7-61.1z M-80.4-58.5
								c1.5-0.6,2.6-1.6,3.1-3.1c0.5-1.3,0.4-2.8-0.3-4.4c-0.7-1.6-1.5-2.7-2.9-3.4c-1.3-0.7-2.8-0.8-4.3-0.1
								c-1.5,0.6-2.6,1.6-3.1,3.1c-0.5,1.3-0.5,2.9,0.2,4.4c0.6,1.5,1.6,2.7,2.9,3.4C-83.4-57.9-81.9-57.9-80.4-58.5z"/>
						</g>
					</g>
				</g>
			</g>
		</g>
	</g>
</g>
</svg>
